<?xml version="1.0" encoding="utf-8"?>
<!-- Generator: Adobe Illustrator 19.0.0, SVG Export Plug-In . SVG Version: 6.00 Build 0)  -->
<svg version="1.1" id="Layer_1" xmlns="http://www.w3.org/2000/svg" xmlns:xlink="http://www.w3.org/1999/xlink" x="0px" y="0px"
	 viewBox="0 0 158 124.5" style="enable-background:new 0 0 158 124.5;" xml:space="preserve">
<style type="text/css">
	.st0{fill:#30429A;}
	.st1{fill:#383D8E;}
	.st2{fill:#40438E;}
	.st3{fill:#FFFFFF;}
	.st4{fill:#373C73;}
	.st5{fill:#33387F;}
	.st6{fill:#E62629;}
	.st7{fill:#383A74;}
</style>
<g id="XMLID_9_">
	<path id="XMLID_101_" class="st0" d="M24.6,28.2c0.8,0,1.5,0.1,2.2,0.2c0.7,0.1,1.3,0.2,1.8,0.3c0,0,0.1,0,0.1,0c0.1,0,0.1,0,0.1,0
		l0.6,0.2l0.1,6.2l-1.3-3.3c-0.3-0.7-0.8-1.2-1.4-1.5c-0.6-0.2-1.4-0.4-2.4-0.4c0,0,0,0-0.1,0c0,0,0,0-0.1,0c0,0,0,0-0.1,0
		c0,0,0,0-0.1,0c-1.3,0-2.4,0.4-3.3,1.3c-0.9,0.9-1.3,1.9-1.3,3.2c0,0.8,0.3,1.5,0.8,2.1c0.5,0.6,1.1,1.1,1.7,1.5
		c0.3,0.2,0.7,0.4,1,0.6c0.3,0.2,0.6,0.3,0.8,0.4c0.2,0.1,0.3,0.2,0.5,0.3c0.2,0.1,0.3,0.2,0.5,0.3c1.6,0.8,2.9,1.7,4.1,2.6
		c1.2,0.9,1.8,2.3,1.9,4.1c0,2.1-0.7,3.8-2.1,4.9c-1.4,1.1-3.3,1.7-5.5,1.7c-0.1,0-0.2,0-0.3,0c-0.1,0-0.2,0-0.3,0
		c-0.4,0-0.7-0.1-1.1-0.1c-0.4-0.1-0.7-0.1-1-0.2c-0.3-0.1-0.5-0.1-0.7-0.2c-0.2,0-0.4-0.1-0.5-0.1l-1.4-0.4l-0.2-6.1l1.1,2.8
		c0.3,0.8,0.8,1.4,1.4,1.7c0.7,0.3,1.3,0.6,2.1,0.7c0.1,0,0.3,0,0.4,0c0.1,0,0.2,0,0.3,0c0.1,0,0.1,0,0.2,0c0.1,0,0.1,0,0.1,0
		c0,0,0.1,0,0.1,0c0.1,0,0.1,0,0.2,0c1.3,0,2.4-0.4,3.3-1.2c1-0.8,1.4-1.7,1.4-2.9c0,0,0,0,0-0.1c0,0,0,0,0-0.1c0,0,0-0.1,0-0.1
		c-0.1-1.1-0.4-2-1.1-2.6c-0.7-0.6-1.5-1.2-2.5-1.6c-0.3-0.1-0.6-0.3-0.8-0.4c-0.3-0.1-0.6-0.3-0.9-0.5c-0.4-0.2-0.8-0.4-1.1-0.6
		c-0.4-0.2-0.7-0.4-1-0.6c-1.1-0.6-1.9-1.3-2.6-2.1c-0.7-0.8-1.1-1.9-1.2-3.4c0,0,0,0,0-0.1c0,0,0-0.1,0-0.1c0,0,0,0,0-0.1
		c0,0,0-0.1,0-0.1c0-2,0.8-3.5,2.3-4.7C21.1,28.8,22.8,28.2,24.6,28.2L24.6,28.2z"/>
	<path id="XMLID_95_" class="st0" d="M37.3,28.7h15.1l1.7-0.6L54,35.2l-0.5-1.7c0,0,0,0,0-0.1c0,0,0-0.1,0-0.1
		c0-0.1-0.1-0.3-0.1-0.4c0-0.1-0.1-0.3-0.1-0.4c-0.1-0.4-0.3-0.8-0.5-1.2c-0.2-0.4-0.4-0.6-0.7-0.7c-0.1,0-0.2-0.1-0.3-0.1
		c-0.1,0-0.2,0-0.3,0c-0.1,0-0.2,0-0.3,0c-0.1,0-0.2,0-0.4,0c0,0-0.1,0-0.1,0c0,0-0.1,0-0.1,0h-4.2v18.7c0,0.4,0,0.7,0,0.9
		c0,0.3,0.2,0.5,0.4,0.8c0.1,0.2,0.4,0.3,0.7,0.4c0.3,0.1,0.7,0.2,1,0.3c0.1,0,0.1,0,0.2,0.1c0.1,0,0.1,0,0.2,0
		c0.2,0,0.3,0.1,0.5,0.1c0.1,0.1,0.3,0.1,0.4,0.1l0.7,0.3H39.6l0.7-0.2c0.2,0,0.4-0.1,0.6-0.1c0.2-0.1,0.5-0.1,0.7-0.2
		c0.2-0.1,0.4-0.2,0.6-0.2c0.2-0.1,0.4-0.2,0.6-0.2c0.1,0,0.2-0.1,0.3-0.2c0.1-0.1,0.1-0.1,0.2-0.2c0.1-0.1,0.1-0.2,0.2-0.3
		c0.1-0.1,0.1-0.2,0.1-0.3c0-0.1,0-0.2,0-0.3c0-0.1,0-0.2,0-0.3c0-0.1,0-0.1,0-0.2s0-0.1,0-0.1c0-0.1,0-0.1,0-0.2s0-0.1,0-0.1V30.5
		h-5c-0.1,0-0.2,0-0.3,0c-0.1,0-0.2,0-0.3,0c0,0-0.1,0-0.1,0.1c-0.1,0-0.1,0-0.1,0.1c-0.3,0.2-0.5,0.5-0.6,0.9
		C37,32,36.9,32.5,36.8,33c0,0.1,0,0.1,0,0.2c0,0.1,0,0.1,0,0.2c0,0.1,0,0.2-0.1,0.3c0,0.1-0.1,0.2-0.1,0.3l-0.4,1.1l-0.2-7
		L37.3,28.7z"/>
	<path id="XMLID_87_" class="st0" d="M24.1,67.5c0,0.1,0.1,0.3,0.1,0.4c0,0.1,0.1,0.3,0.1,0.4c0,0.1,0.1,0.3,0.1,0.4
		c0.3,0.9,0.7,2.2,1.3,3.8c0.6,1.6,1.2,3.3,1.8,5c0,0.1,0.1,0.2,0.1,0.3c0,0.1,0.1,0.2,0.1,0.3c0.8,2.1,1.5,4.1,2.2,5.8
		c0.7,1.8,1.2,2.9,1.4,3.4c0.1,0.2,0.1,0.3,0.2,0.4s0.1,0.3,0.2,0.4c0,0.1,0.1,0.2,0.2,0.3c0.1,0.1,0.1,0.2,0.2,0.4
		c0.1,0.2,0.3,0.4,0.7,0.6c0.3,0.2,0.7,0.3,1.1,0.5c0.1,0,0.2,0.1,0.3,0.1c0.1,0,0.2,0.1,0.3,0.1c0.1,0,0.1,0,0.2,0.1
		c0.1,0,0.1,0.1,0.2,0.1l0.7,0.3H26l0.8-0.3c0.1,0,0.3-0.1,0.4-0.1c0.1-0.1,0.3-0.1,0.5-0.2c0.3-0.1,0.6-0.2,0.8-0.4
		c0.2-0.1,0.4-0.3,0.5-0.5c0,0,0,0,0-0.1c0,0,0,0,0,0c0,0,0,0,0,0c0-0.1,0-0.2-0.1-0.4c0-0.2-0.1-0.3-0.2-0.5c0-0.1,0-0.2-0.1-0.2
		c0-0.1,0-0.1-0.1-0.2c0-0.1,0-0.2-0.1-0.2c0-0.1-0.1-0.1-0.1-0.2l-2.1-6h-7.9l-2.2,6c0,0.1,0,0.1,0,0.1c0,0,0,0.1,0,0.1
		c0,0.1-0.1,0.2-0.1,0.3c0,0.1-0.1,0.2-0.1,0.3c-0.1,0.2-0.1,0.5-0.2,0.7c0,0.2-0.1,0.4-0.1,0.5c0,0,0,0,0,0c0,0,0,0,0,0
		c0.1,0.2,0.3,0.3,0.5,0.5c0.2,0.1,0.5,0.2,0.8,0.3c0,0,0.1,0,0.1,0c0,0,0.1,0,0.1,0c0.1,0,0.2,0.1,0.3,0.1c0.1,0,0.2,0.1,0.3,0.1
		l0.9,0.3H10l0.7-0.3c0.1,0,0.3-0.1,0.5-0.2c0.2-0.1,0.4-0.1,0.5-0.2c0.4-0.1,0.7-0.3,1-0.4c0.3-0.2,0.5-0.4,0.6-0.5
		c0.1-0.1,0.1-0.2,0.2-0.3c0-0.1,0.1-0.2,0.1-0.3c0-0.1,0.1-0.1,0.1-0.2c0-0.1,0-0.1,0.1-0.2c0-0.1,0.1-0.2,0.1-0.3
		c0-0.1,0.1-0.2,0.1-0.3c0.3-0.6,0.5-1.2,0.8-1.9c0.3-0.7,0.5-1.3,0.8-2c0.1-0.3,0.3-0.7,0.4-1c0.1-0.4,0.3-0.7,0.4-1.1
		c1.1-2.8,2.1-5.3,3-7.7s1.5-3.9,1.7-4.6c0.1-0.2,0.1-0.4,0.2-0.6c0.1-0.2,0.1-0.3,0.1-0.5c0-0.1,0-0.1,0-0.2c0-0.1,0-0.1,0-0.2
		c0-0.1,0.1-0.2,0.1-0.4c0-0.1,0.1-0.3,0.1-0.4l2.1,0C24,67.2,24.1,67.4,24.1,67.5z M22.4,71.2l-3.3,8.4h6.5L22.4,71.2z"/>
	<path id="XMLID_81_" class="st0" d="M60.8,87.3c-0.5-0.5-0.8-0.9-1-1.1c-0.1-0.1-0.3-0.3-0.4-0.4c-0.2-0.2-0.5-0.5-0.9-0.9
		c-0.4-0.5-0.9-0.9-1.3-1.4c-0.4-0.5-0.9-0.9-1.4-1.4c-0.1-0.1-0.2-0.2-0.3-0.3c-0.1-0.1-0.2-0.2-0.3-0.3c-2.1-2.2-4.1-4.2-6-6.1
		c-1.9-1.9-3.2-3.2-4-4v13.8c0,0.1,0,0.2,0,0.3c0,0.1,0,0.2,0,0.4c0,0.1,0,0.3,0,0.4c0,0.2,0,0.3,0,0.5c0,0.1,0,0.3,0,0.4
		c0,0.1,0,0.3,0,0.4c0,0.3,0.1,0.7,0.1,1c0.1,0.3,0.1,0.6,0.2,0.8c0.1,0.2,0.3,0.4,0.6,0.5c0.3,0.1,0.6,0.3,1,0.4
		c0.1,0,0.2,0.1,0.3,0.1c0.1,0,0.2,0.1,0.3,0.1l0.9,0.3h-8.3l0.5-0.3c0.1,0,0.2-0.1,0.3-0.1c0.1,0,0.2-0.1,0.3-0.1
		c0.4-0.1,0.7-0.3,1-0.5c0.3-0.2,0.6-0.4,0.7-0.6c0.1-0.2,0.2-0.5,0.2-1c0-0.5,0.1-1,0.1-1.6c0-0.3,0-0.5,0-0.8c0-0.3,0-0.5,0-0.7
		V67.1h1.9c0.2,0.3,0.5,0.7,0.8,1.1c0.3,0.4,0.7,0.9,1.3,1.5c0.9,0.9,1.9,1.9,3,3c1.1,1.1,2.2,2.2,3.3,3.4c2.3,2.4,4.4,4.6,6.4,6.6
		c2,2,3.2,3.3,3.6,3.7V72.7c0-0.1,0-0.3,0-0.5c0-0.2,0-0.4,0-0.6s0-0.4,0-0.6c0-0.2,0-0.4,0-0.5c0-0.4,0-0.8,0-1.2
		c0-0.4-0.1-0.6-0.2-0.8c-0.1-0.2-0.3-0.4-0.6-0.5c-0.3-0.1-0.6-0.3-1-0.4c0,0-0.1,0-0.1,0c0,0,0,0-0.1,0c-0.1,0-0.2-0.1-0.3-0.1
		c-0.1,0-0.2-0.1-0.3-0.1l-0.5-0.3h8.3l-0.9,0.4c-0.1,0-0.1,0.1-0.2,0.1c-0.1,0-0.1,0-0.2,0.1c-0.3,0.1-0.6,0.3-0.9,0.4
		c-0.3,0.1-0.5,0.3-0.7,0.5c-0.1,0.1-0.2,0.4-0.2,0.8c-0.1,0.4-0.1,0.8-0.1,1.3c0,0.3,0,0.5,0,0.8c0,0.2,0,0.5,0,0.7
		c0,0.2,0,0.4,0,0.7v18.1H64C62.3,88.9,61.2,87.8,60.8,87.3z"/>
	<path id="XMLID_75_" class="st0" d="M93.9,87.3c-0.5-0.5-0.8-0.9-1-1.1c-0.1-0.1-0.3-0.3-0.4-0.4c-0.2-0.2-0.5-0.5-0.9-0.9
		c-0.4-0.5-0.9-0.9-1.3-1.4c-0.4-0.5-0.9-0.9-1.4-1.4c-0.1-0.1-0.2-0.2-0.3-0.3c-0.1-0.1-0.2-0.2-0.3-0.3c-2.1-2.2-4.1-4.2-6-6.1
		c-1.9-1.9-3.2-3.2-4-4v13.8c0,0.1,0,0.2,0,0.3c0,0.1,0,0.2,0,0.4c0,0.1,0,0.3,0,0.4c0,0.2,0,0.3,0,0.5c0,0.1,0,0.3,0,0.4
		c0,0.1,0,0.3,0,0.4c0,0.3,0.1,0.7,0.1,1c0.1,0.3,0.1,0.6,0.2,0.8c0.1,0.2,0.3,0.4,0.6,0.5c0.3,0.1,0.6,0.3,1,0.4
		c0.1,0,0.2,0.1,0.3,0.1c0.1,0,0.2,0.1,0.3,0.1l0.9,0.3h-8.3l0.5-0.3c0.1,0,0.2-0.1,0.3-0.1c0.1,0,0.2-0.1,0.3-0.1
		c0.4-0.1,0.7-0.3,1-0.5c0.3-0.2,0.6-0.4,0.7-0.6c0.1-0.2,0.2-0.5,0.2-1c0-0.5,0.1-1,0.1-1.6c0-0.3,0-0.5,0-0.8c0-0.3,0-0.5,0-0.7
		V67.1h1.9c0.2,0.3,0.5,0.7,0.8,1.1c0.3,0.4,0.7,0.9,1.3,1.5c0.9,0.9,1.9,1.9,3,3c1.1,1.1,2.2,2.2,3.3,3.4c2.3,2.4,4.4,4.6,6.4,6.6
		c2,2,3.2,3.3,3.6,3.7V72.7c0-0.1,0-0.3,0-0.5c0-0.2,0-0.4,0-0.6s0-0.4,0-0.6c0-0.2,0-0.4,0-0.5c0-0.4,0-0.8,0-1.2
		c0-0.4-0.1-0.6-0.2-0.8c-0.1-0.2-0.3-0.4-0.6-0.5c-0.3-0.1-0.6-0.3-1-0.4c0,0-0.1,0-0.1,0c0,0,0,0-0.1,0c-0.1,0-0.2-0.1-0.3-0.1
		c-0.1,0-0.2-0.1-0.3-0.1l-0.5-0.3h8.3l-0.9,0.4c-0.1,0-0.1,0.1-0.2,0.1c-0.1,0-0.1,0-0.2,0.1c-0.3,0.1-0.6,0.3-0.9,0.4
		c-0.3,0.1-0.5,0.3-0.7,0.5c-0.1,0.1-0.2,0.4-0.2,0.8c-0.1,0.4-0.1,0.8-0.1,1.3c0,0.3,0,0.5,0,0.8c0,0.2,0,0.5,0,0.7
		c0,0.2,0,0.4,0,0.7v18.1h-1.5C95.4,88.9,94.4,87.8,93.9,87.3z"/>
	<path id="XMLID_69_" class="st0" d="M122.4,67.1l0,5.2L122,71c0-0.1-0.1-0.2-0.1-0.3c0-0.1-0.1-0.2-0.1-0.3
		c-0.1-0.3-0.2-0.6-0.3-0.8c-0.1-0.2-0.3-0.4-0.6-0.6c-0.2-0.1-0.4-0.2-0.6-0.3c-0.2-0.1-0.4-0.1-0.6-0.1c-0.1,0-0.3,0-0.4,0
		c-0.1,0-0.2,0-0.4,0l-3.9,0c0,0-0.1,0-0.1,0c0,0-0.1,0-0.2,0c-0.3,0-0.5,0-0.8,0c-0.2,0-0.4,0.1-0.6,0.2c-0.1,0.1-0.1,0.2-0.2,0.4
		c0,0.2,0,0.4,0,0.7c0,0,0,0,0,0.1c0,0,0,0,0,0.1c0,0,0,0.1,0,0.1v7.6h4.5c0.1,0,0.3,0,0.4,0c0.1,0,0.3,0,0.4,0c0.3,0,0.5,0,0.7,0
		c0.2,0,0.4-0.1,0.6-0.3c0,0,0.1-0.1,0.1-0.1c0,0,0.1-0.1,0.1-0.1c0.1-0.1,0.2-0.2,0.2-0.3c0.1-0.1,0.1-0.2,0.2-0.3l0.7-1.4v7.5
		l-0.3-0.7c0-0.1,0-0.1-0.1-0.2c0-0.1-0.1-0.2-0.1-0.3c0,0,0-0.1,0-0.1c0,0,0-0.1,0-0.1c-0.1-0.3-0.2-0.7-0.4-1
		c-0.1-0.3-0.3-0.5-0.6-0.7c-0.1-0.1-0.3-0.1-0.4-0.2c-0.1,0-0.3-0.1-0.4-0.1c-0.1,0-0.3,0-0.4,0c-0.1,0-0.3,0-0.5,0c0,0,0,0-0.1,0
		c0,0-0.1,0-0.1,0h-4.7v7.8c0,0.1,0,0.2,0,0.4c0,0.1,0,0.2,0,0.4c0,0.2,0.1,0.4,0.2,0.6c0.1,0.2,0.2,0.3,0.3,0.4
		c0.2,0.1,0.3,0.1,0.5,0.2c0.1,0,0.3,0,0.4,0c0.1,0,0.1,0,0.2,0c0.1,0,0.1,0,0.2,0c0,0,0.1,0,0.2,0c0.1,0,0.1,0,0.2,0l5.2,0
		c0.1,0,0.1,0,0.2,0c0.1,0,0.1,0,0.2,0c0,0,0.1,0,0.2,0c0.1,0,0.1,0,0.2,0c0.1,0,0.2,0,0.3,0c0.1,0,0.2-0.1,0.3-0.1
		c0.2-0.1,0.3-0.3,0.4-0.5c0.1-0.3,0.2-0.5,0.3-0.9c0-0.1,0-0.1,0.1-0.2c0-0.1,0-0.1,0.1-0.2c0-0.1,0.1-0.3,0.1-0.4
		c0.1-0.1,0.1-0.2,0.1-0.4l0.4-1l-0.2,5.2h-17l0.7-0.2c0.2,0,0.4-0.1,0.6-0.1c0.2-0.1,0.5-0.1,0.7-0.2c0.2-0.1,0.4-0.2,0.6-0.2
		c0.2-0.1,0.4-0.2,0.6-0.2c0.1,0,0.2-0.1,0.3-0.2c0.1-0.1,0.1-0.1,0.2-0.2c0.1-0.1,0.2-0.3,0.2-0.4c0-0.2,0.1-0.3,0.1-0.5
		c0-0.1,0-0.1,0-0.2c0-0.1,0-0.1,0-0.2c0-0.1,0-0.2,0-0.3s0-0.2,0-0.3V70.2c0-0.1,0-0.2,0-0.3c0-0.1,0-0.2,0-0.3c0-0.2,0-0.4,0-0.6
		c0-0.2-0.1-0.4-0.3-0.5c0,0-0.1-0.1-0.2-0.2c-0.1-0.1-0.2-0.1-0.3-0.2c-0.2-0.1-0.4-0.2-0.6-0.2c-0.2-0.1-0.4-0.2-0.6-0.2
		c-0.2-0.1-0.5-0.1-0.7-0.2c-0.2-0.1-0.4-0.1-0.6-0.2l-0.7-0.3H122.4z"/>
	<path id="XMLID_63_" class="st0" d="M141.7,66.6c0.8,0,1.5,0.1,2.2,0.2c0.7,0.1,1.3,0.2,1.8,0.3c0,0,0.1,0,0.1,0c0.1,0,0.1,0,0.1,0
		l0.6,0.2l0.1,6.2l-1.3-3.3c-0.3-0.7-0.8-1.2-1.4-1.5c-0.6-0.2-1.4-0.4-2.4-0.4c0,0,0,0-0.1,0c0,0,0,0-0.1,0c0,0,0,0-0.1,0
		c0,0,0,0-0.1,0c-1.3,0-2.4,0.4-3.3,1.3c-0.9,0.9-1.3,1.9-1.3,3.2c0,0.8,0.3,1.5,0.8,2.1c0.5,0.6,1.1,1.1,1.7,1.5
		c0.3,0.2,0.7,0.4,1,0.6c0.3,0.2,0.6,0.3,0.8,0.4c0.2,0.1,0.3,0.2,0.5,0.3c0.2,0.1,0.3,0.2,0.5,0.3c1.6,0.8,2.9,1.7,4.1,2.6
		c1.2,0.9,1.8,2.3,1.9,4.1c0,2.1-0.7,3.8-2.1,4.9c-1.4,1.1-3.3,1.7-5.5,1.7c-0.1,0-0.2,0-0.3,0c-0.1,0-0.2,0-0.3,0
		c-0.4,0-0.7-0.1-1.1-0.1c-0.4-0.1-0.7-0.1-1-0.2c-0.3-0.1-0.5-0.1-0.7-0.2c-0.2,0-0.4-0.1-0.5-0.1l-1.4-0.4l-0.2-6.1l1.1,2.8
		c0.3,0.8,0.8,1.4,1.4,1.7c0.7,0.3,1.3,0.6,2.1,0.7c0.1,0,0.3,0,0.4,0c0.1,0,0.2,0,0.3,0c0.1,0,0.1,0,0.2,0c0.1,0,0.1,0,0.1,0
		c0,0,0.1,0,0.1,0c0.1,0,0.1,0,0.2,0c1.3,0,2.4-0.4,3.3-1.2c1-0.8,1.4-1.7,1.4-2.9c0,0,0,0,0-0.1c0,0,0,0,0-0.1c0,0,0-0.1,0-0.1
		c-0.1-1.1-0.4-2-1.1-2.6c-0.7-0.6-1.5-1.2-2.5-1.6c-0.3-0.1-0.6-0.3-0.8-0.4c-0.3-0.1-0.6-0.3-0.9-0.5c-0.4-0.2-0.8-0.4-1.1-0.6
		c-0.4-0.2-0.7-0.4-1-0.6c-1.1-0.6-1.9-1.3-2.6-2.1c-0.7-0.8-1.1-1.9-1.2-3.4c0,0,0,0,0-0.1c0,0,0-0.1,0-0.1c0,0,0,0,0-0.1
		c0,0,0-0.1,0-0.1c0-2,0.8-3.5,2.3-4.7C138.2,67.2,139.8,66.6,141.7,66.6L141.7,66.6z"/>
	<path id="XMLID_62_" class="st1" d="M129.5,69.9c-0.6,0.1-1.4,0.3-2.4,0.5c0.9-2.1,1.6-4,2.4-5.8c0.2-0.4,0.9-0.5,1.7-0.8
		C130.5,66,130,67.9,129.5,69.9z"/>
	<path id="XMLID_61_" class="st2" d="M57.8,49.3c1,0,2,0,3,0c0,1,0,1.9,0,3c-1,0-2,0-3,0C57.8,51.3,57.8,50.4,57.8,49.3z"/>
	<g id="XMLID_10_">
		<polygon id="XMLID_60_" class="st3" points="88.5,15.4 70,20.6 70,43.9 73.4,50.5 84.1,60.7 89.1,64.4 101.1,54.6 107.6,46.9 
			108.4,31.1 108.4,20.8 		"/>
		<path id="XMLID_15_" class="st0" d="M109.6,42.8c-0.4,2.9-1.7,5.3-3.4,7.5c-4.6,6.3-10.6,11.2-17,15.8c-2.3-1.8-4.7-3.6-6.9-5.5
			c-4.1-3.4-7.9-7.1-10.8-11.6c-1.3-2-2.4-4.2-2.6-6.6c0.1-0.4,0.2-0.8,0.2-1.2c0-7.2,0-14.3,0-21.5c4.3-1.2,8.5-2.4,12.8-3.6
			c2.2-0.6,4.5-1.2,6.7-1.8c0.4-0.1,0.9-0.2,1.3-0.1c6.5,1.8,13,3.5,19.5,5.3c0.1,0,0.2,0.1,0.3,0.2c0,0.6,0,1.1,0,1.7
			c-0.1,0.3-0.2,0.7-0.2,1c0,6.5,0,12.9,0,19.4C109.4,42.2,109.5,42.5,109.6,42.8z M70.9,39.5c0.1,1,0.1,2,0.2,3l0,0.1
			c0.6,1.5,0.9,3.2,1.7,4.6c2,3.6,4.7,6.5,7.7,9.2c2.3,2,4.7,3.9,7.1,5.8c1.5,1.5,1.8,1.5,3,0.2c2.2-1.8,4.4-3.4,6.5-5.3
			c3.4-3,6.6-6.3,8.8-10.4c0.7-1.3,1-2.7,1.5-4.1c0-0.9,0-1.9,0-2.8c0-0.2,0.1-0.5,0.1-0.7c0-5.7,0-11.4,0-17c0-0.2,0-0.4-0.1-0.6
			c-3.5-1-7-1.9-10.5-2.9c-2.1-0.6-4.3-1.1-6.4-1.6c-1-0.7-2-0.3-3,0C87.4,16.9,87.2,17,87,17c-2.4,0.6-4.8,1.2-7.2,1.9
			c-3,0.8-5.9,1.7-8.9,2.5c-0.1,0.3-0.2,0.5-0.2,0.8c0,5.5,0,11,0,16.4C70.7,38.9,70.8,39.2,70.9,39.5z"/>
		<path id="XMLID_14_" class="st4" d="M69,19.7c0,7.2,0,14.3,0,21.5c0,0.4-0.1,0.8-0.2,1.2c0-2.1-0.1-4.1-0.1-6.2
			c0-5.1,0-10.3,0-15.4C68.8,20.4,68.9,20.1,69,19.7z"/>
		<path id="XMLID_13_" class="st5" d="M109.6,42.8c-0.1-0.3-0.2-0.7-0.2-1c0-6.5,0-12.9,0-19.4c0-0.3,0.1-0.7,0.2-1
			C109.6,28.6,109.6,35.7,109.6,42.8z"/>
		<path id="XMLID_12_" class="st6" d="M90.6,16.8c0,7.5,0,15.1,0,22.8c0.5,0,0.8,0,1.2,0c4.9,0,9.7,0,14.6,0c0.4,0,0.8,0.1,1.1,0.2
			c0,0.9,0,1.9,0,2.8c-4.7,0-9.4,0-14.1,0.1c-0.9,0-1.8,0-2.8,0c0,6.6,0,13.2,0,19.7c-1.3,1.3-1.5,1.3-3-0.2c0-6.5,0-12.9,0-19.5
			c-0.4,0-0.8,0-1.1,0c-3.4,0-6.8,0-10.2,0c-1.7,0-3.4,0-5.2-0.1c0,0,0-0.1,0-0.1c0-0.9,0-1.9,0-2.9c5.6,0,11.1,0,16.6,0
			c0-7.6,0-15.2,0-22.7C88.6,16.5,89.6,16.1,90.6,16.8z"/>
		<path id="XMLID_11_" class="st7" d="M70.9,39.2c0,0.1,0,0.1-0.1,0.2c-0.1-0.3-0.2-0.5-0.2-0.8c0-5.5,0-11,0-16.4
			c0-0.3,0.1-0.5,0.2-0.8C70.9,27.4,70.9,33.3,70.9,39.2z"/>
	</g>
</g>
</svg>
